<!DOCTYPE svg PUBLIC "-//W3C//DTD SVG 1.1//EN" "http://www.w3.org/Graphics/SVG/1.1/DTD/svg11.dtd">
<!-- Uploaded to: SVG Repo, www.svgrepo.com, Transformed by: SVG Repo Mixer Tools -->
<svg version="1.1" id="Capa_1" xmlns="http://www.w3.org/2000/svg" xmlns:xlink="http://www.w3.org/1999/xlink" viewBox="0 0 420 420" xml:space="preserve" width="800px" height="800px" fill="#000000">
<g id="SVGRepo_bgCarrier" stroke-width="0"/>
<g id="SVGRepo_tracerCarrier" stroke-linecap="round" stroke-linejoin="round"/>
<g id="SVGRepo_iconCarrier"> <g id="XMLID_907_"> <path id="XMLID_909_" style="fill:#565659;" d="M110,420c16.568,0,30-13.431,30-30H80C80,406.569,93.432,420,110,420z"/> <path id="XMLID_910_" style="fill:#565659;" d="M310,420c16.568,0,30-13.431,30-30h-60C280,406.569,293.432,420,310,420z"/> <path id="XMLID_911_" style="fill:#565659;" d="M229.032,26.137C229.655,24.202,230,22.142,230,20c0-11.046-8.955-20-20-20 c-11.045,0-20,8.954-20,20c0,2.142,0.345,4.202,0.968,6.137C197.211,25.394,203.56,25,210,25 C216.44,25,222.789,25.394,229.032,26.137z"/> <polygon id="XMLID_912_" style="fill:#A0815C;" points="210,210 170,210 170,239.999 140,239.999 140,210 110,210 110,270 210,270 "/> <polygon id="XMLID_913_" style="fill:#786145;" points="280,239.999 250,239.999 250,210 210,210 210,270 310,270 310,210 280,210 "/> <polygon id="XMLID_914_" style="fill:#3252DF;" points="140,209.999 170,209.999 170,210 210,210 250,210 250,209.999 280,209.999 280,210 310,210 310,180 110,180 110,210 140,210 "/> <polygon id="XMLID_915_" style="fill:#50412E;" points="140,209.999 140,210 140,239.999 170,239.999 170,210 170,209.999 "/> <polygon id="XMLID_916_" style="fill:#50412E;" points="280,239.999 280,210 280,209.999 250,209.999 250,210 250,239.999 "/> <rect id="XMLID_917_" x="210" y="330.002" style="fill:#3252DF;" width="130" height="29.998"/> <polygon id="XMLID_918_" style="fill:#3252DF;" points="210,270 210,300 260,300 260,300.002 340,300.002 340,270 310,270 "/> <polygon id="XMLID_919_" style="fill:#325296;" points="160,300 210,300 210,270 110,270 80,270 80,300.002 160,300.002 "/> <rect id="XMLID_920_" x="80" y="330.002" style="fill:#325296;" width="130" height="29.998"/> <polygon id="XMLID_921_" style="fill:#786145;" points="260,330 160,330 160,300.002 80,300.002 80,330.002 210,330.002 340,330.002 340,300.002 260,300.002 "/> <polygon id="XMLID_922_" style="fill:#50412E;" points="160,300.002 160,330 260,330 260,300.002 260,300 210,300 160,300 "/> <path id="XMLID_923_" style="fill:#FF498B;" d="M229.032,26.137C222.789,25.394,216.44,25,210,25 c-6.44,0-12.789,0.394-19.032,1.137C111.683,35.577,50,103.216,50,185v205h30h60h140h60h30V185 C370,103.216,308.317,35.577,229.032,26.137z M340,270v30.002v30V360H210H80v-29.998v-30V270v-85c0-71.682,58.318-130,130-130 s130,58.318,130,130V270z"/> </g> </g>
</svg>